<svg width="216" height="99" viewBox="0 0 216 99" fill="none" xmlns="http://www.w3.org/2000/svg">
<path d="M98.6013 84.8006C99.4413 83.0206 101.201 81.9206 103.081 81.5906C104.831 81.2906 107.051 81.6406 108.321 83.0606C108.831 83.6306 109.291 84.0006 109.781 84.7206C110.001 85.0406 110.171 85.3906 110.341 85.7406C110.571 86.1506 110.831 86.5506 111.131 86.9306C111.211 87.0306 111.291 87.1306 111.371 87.2306C111.321 87.1706 111.271 87.1106 111.211 87.0506C111.211 87.0506 111.221 87.0706 111.231 87.0706C111.281 87.1306 111.331 87.1906 111.391 87.2506C112.281 88.3806 112.891 89.6006 112.941 91.1506C113.001 92.7206 112.371 94.6406 111.251 95.7806C110.041 97.0006 108.411 97.9406 106.641 97.9306C104.851 97.9206 103.441 97.3106 102.011 96.2406C100.851 95.3706 99.8013 94.2006 99.0713 92.9506C97.5313 90.3106 97.3013 87.6106 98.6213 84.8006M140.121 72.3906C141.901 69.8306 145.511 68.7706 148.331 70.3306C148.931 70.6606 149.801 70.9906 150.321 71.4206C150.971 71.6506 151.611 71.8806 152.251 72.1506C153.961 72.8706 155.511 73.5706 156.911 74.8606C159.001 76.7706 159.311 79.9506 157.711 82.2406C155.991 84.7206 153.181 85.0606 150.511 84.0506C151.961 84.6006 150.721 84.1806 150.441 84.1006C150.071 84.0006 149.711 83.9206 149.341 83.8506C149.221 83.8306 149.091 83.8106 148.971 83.7906C148.891 83.7806 148.841 83.7706 148.791 83.7606C148.541 83.7306 148.231 83.7006 147.841 83.6706C147.651 83.6606 147.461 83.6306 147.281 83.5906C145.031 83.1906 142.801 82.3006 141.051 80.8206C138.601 78.7406 138.371 74.9406 140.131 72.4106M102.141 38.2306C106.211 36.9106 109.941 34.3306 114.571 34.2306C119.821 34.1206 121.701 40.8206 117.581 43.7706C115.841 45.0206 113.761 45.7406 111.961 46.9306C110.041 48.2006 108.061 49.3006 105.891 50.1006C102.731 51.2606 99.0513 49.1406 98.0713 46.0306C97.0513 42.7906 98.9213 39.2506 102.141 38.2106M52.2413 50.1106C53.2113 47.4806 56.2413 45.5006 59.1113 46.3406C61.1613 46.9406 62.8213 48.1106 64.6413 49.1706C65.3613 49.5906 66.0913 50.0106 66.8213 50.3906C67.1513 50.5606 67.4913 50.7106 67.8213 50.8806C67.9413 50.9406 68.0213 50.9906 68.0913 51.0306C72.8113 52.1206 73.1113 59.2706 68.3813 60.6406C65.5413 61.4706 62.9613 60.9006 60.2913 59.8106C58.5613 59.1006 56.6413 58.3606 55.0213 57.4206C52.4413 55.9106 51.1713 52.9606 52.2213 50.1006M168.651 40.4706C172.361 38.7206 175.681 40.7906 177.261 44.2006C176.871 43.3506 177.411 44.1606 177.691 44.5806C177.811 44.7006 178.111 45.0206 178.251 45.1606C179.231 46.2206 180.211 47.3006 181.101 48.4306C181.871 49.4106 182.671 50.5606 183.051 51.7706C183.291 52.5406 183.451 53.5106 183.481 54.3206C183.491 54.7706 182.721 57.7106 182.981 56.6706C182.001 60.4806 177.361 61.1606 175.021 58.9606C174.201 58.3806 173.601 57.5906 172.891 56.8506C173.041 57.0306 172.031 56.1406 172.031 56.1406C171.651 55.8106 171.241 55.4906 170.851 55.1706C168.941 53.6006 167.111 51.7306 166.041 49.4806C164.431 46.1006 164.911 42.2306 168.651 40.4606M193.841 87.0506C193.181 83.2406 196.011 79.5806 199.961 79.4406C203.921 79.3006 207.421 80.9606 211.251 81.5906C215.691 82.3206 217.171 89.3606 213.011 91.5206C210.381 92.8906 207.891 93.0706 205.011 92.6506C204.181 92.5306 203.311 92.4306 202.511 92.2206C202.481 92.2206 202.461 92.2106 202.441 92.2006C202.431 92.2006 202.421 92.2006 202.401 92.2006C201.901 92.2306 200.671 92.5806 202.171 92.1506C198.401 93.2406 194.531 90.9406 193.851 87.0406M38.6313 8.70061C37.9313 6.34061 38.8413 3.67061 40.9213 2.33061C42.1713 1.53061 43.9713 1.24061 45.5313 1.63061C50.0913 0.570607 55.3913 0.730608 59.0313 3.54061C61.1813 5.20061 61.3013 8.67061 59.8113 10.7406C58.3113 12.8206 55.7613 13.5706 53.3913 12.7406C53.1213 12.7406 52.8613 12.7506 52.5913 12.7706C52.1713 12.7906 51.7513 12.8206 51.3213 12.8606C51.2113 12.8706 50.2013 13.0306 50.2813 13.0106C48.4313 13.3706 46.6113 13.8006 44.7213 13.8406C42.1613 13.8906 39.7313 12.2406 38.9513 9.77061C38.8413 9.42061 38.7313 9.06061 38.6313 8.71061M9.36127 46.9606C15.6713 50.1706 19.0413 56.7806 19.4413 63.6906C19.7413 68.7906 12.8513 70.6906 10.1213 66.6306C8.07127 63.5906 7.17127 59.5106 3.74127 57.7706C-3.25873 54.2106 2.37127 43.4106 9.36127 46.9706" stroke="white" stroke-miterlimit="10"/>
</svg>
