<svg width="216" height="99" viewBox="0 0 216 99" fill="none" xmlns="http://www.w3.org/2000/svg">
<path d="M117.399 14.1569C116.559 15.9369 114.799 17.0369 112.919 17.3669C111.169 17.6669 108.949 17.3169 107.679 15.8969C107.169 15.3269 106.709 14.9569 106.219 14.2369C105.999 13.9169 105.829 13.5669 105.659 13.2169C105.429 12.8069 105.169 12.4069 104.869 12.0269C104.789 11.9269 104.709 11.8269 104.629 11.7269C104.679 11.7869 104.729 11.8469 104.789 11.9069C104.789 11.9069 104.779 11.8869 104.769 11.8869C104.719 11.8269 104.669 11.7669 104.609 11.7069C103.719 10.5769 103.109 9.35691 103.059 7.80691C102.999 6.23691 103.629 4.31691 104.749 3.17691C105.959 1.95691 107.589 1.01691 109.359 1.02691C111.149 1.03691 112.559 1.64691 113.989 2.71691C115.149 3.58691 116.199 4.75691 116.929 6.00691C118.469 8.64691 118.699 11.3469 117.379 14.1569M75.8787 26.5669C74.0987 29.1269 70.4887 30.1869 67.6687 28.6269C67.0687 28.2969 66.1987 27.9669 65.6787 27.5369C65.0287 27.3069 64.3887 27.0769 63.7487 26.8069C62.0387 26.0869 60.4887 25.3869 59.0887 24.0969C56.9987 22.1869 56.6887 19.0069 58.2887 16.7169C60.0087 14.2369 62.8187 13.8969 65.4887 14.9069C64.0387 14.3569 65.2787 14.7769 65.5587 14.8569C65.9287 14.9569 66.2887 15.0369 66.6587 15.1069C66.7787 15.1269 66.9087 15.1469 67.0287 15.1669C67.1087 15.1769 67.1587 15.1869 67.2087 15.1969C67.4587 15.2269 67.7687 15.2569 68.1587 15.2869C68.3487 15.2969 68.5387 15.3269 68.7187 15.3669C70.9687 15.7669 73.1987 16.6569 74.9487 18.1369C77.3987 20.2169 77.6287 24.0169 75.8687 26.5469M113.859 60.7269C109.789 62.0469 106.059 64.6269 101.429 64.7269C96.1787 64.8369 94.2987 58.1369 98.4187 55.1869C100.159 53.9369 102.239 53.2169 104.039 52.0269C105.959 50.7569 107.939 49.6569 110.109 48.8569C113.269 47.6969 116.949 49.8169 117.929 52.9269C118.949 56.1669 117.079 59.7069 113.859 60.7469M163.759 48.8469C162.789 51.4769 159.759 53.4569 156.889 52.6169C154.839 52.0169 153.179 50.8469 151.359 49.7869C150.639 49.3669 149.909 48.9469 149.179 48.5669C148.849 48.3969 148.509 48.2469 148.179 48.0769C148.059 48.0169 147.979 47.9669 147.909 47.9269C143.189 46.8369 142.889 39.6869 147.619 38.3169C150.459 37.4869 153.039 38.0569 155.709 39.1469C157.439 39.8569 159.359 40.5969 160.979 41.5369C163.559 43.0469 164.829 45.9969 163.779 48.8569M47.3487 58.4869C43.6387 60.2369 40.3187 58.1669 38.7387 54.7569C39.1287 55.6069 38.5887 54.7969 38.3087 54.3769C38.1887 54.2569 37.8887 53.9369 37.7487 53.7969C36.7687 52.7369 35.7887 51.6569 34.8987 50.5269C34.1287 49.5469 33.3287 48.3969 32.9487 47.1869C32.7087 46.4169 32.5487 45.4469 32.5187 44.6369C32.5087 44.1869 33.2787 41.2469 33.0187 42.2869C33.9987 38.4769 38.6387 37.7969 40.9787 39.9969C41.7987 40.5769 42.3987 41.3669 43.1087 42.1069C42.9587 41.9269 43.9687 42.8169 43.9687 42.8169C44.3487 43.1469 44.7587 43.4669 45.1487 43.7869C47.0587 45.3569 48.8887 47.2269 49.9587 49.4769C51.5687 52.8569 51.0887 56.7269 47.3487 58.4969M22.1587 11.9069C22.8187 15.7169 19.9887 19.3769 16.0387 19.5169C12.0787 19.6569 8.57873 17.9969 4.74873 17.3669C0.308733 16.6369 -1.17126 9.59691 2.98874 7.43691C5.61874 6.06691 8.10874 5.88691 10.9887 6.30691C11.8187 6.42691 12.6887 6.52691 13.4887 6.73691C13.5187 6.73691 13.5387 6.74691 13.5587 6.75691C13.5687 6.75691 13.5787 6.75691 13.5987 6.75691C14.0987 6.72691 15.3287 6.37691 13.8287 6.80691C17.5987 5.71691 21.4687 8.01691 22.1487 11.9169M177.369 90.2569C178.069 92.6169 177.159 95.2869 175.079 96.6269C173.829 97.4269 172.029 97.7169 170.469 97.3269C165.909 98.3869 160.609 98.2269 156.969 95.4169C154.819 93.7569 154.699 90.2869 156.189 88.2169C157.689 86.1369 160.239 85.3869 162.609 86.2169C162.879 86.2169 163.139 86.2069 163.409 86.1869C163.829 86.1669 164.249 86.1369 164.679 86.0969C164.789 86.0869 165.799 85.9269 165.719 85.9469C167.569 85.5869 169.389 85.1569 171.279 85.1169C173.839 85.0669 176.269 86.7169 177.049 89.1869C177.159 89.5369 177.269 89.8969 177.369 90.2469M206.639 51.9969C200.329 48.7869 196.959 42.1769 196.559 35.2669C196.259 30.1669 203.149 28.2669 205.879 32.3269C207.929 35.3669 208.829 39.4469 212.259 41.1869C219.259 44.7469 213.629 55.5469 206.639 51.9869" stroke="white" stroke-miterlimit="10"/>
</svg>
